<?xml version="1.0" encoding="utf-8"?>
<!-- Generator: Adobe Illustrator 17.0.0, SVG Export Plug-In . SVG Version: 6.00 Build 0)  -->
<!DOCTYPE svg PUBLIC "-//W3C//DTD SVG 1.1//EN" "http://www.w3.org/Graphics/SVG/1.1/DTD/svg11.dtd">
<svg version="1.1" id="Layer_1" xmlns="http://www.w3.org/2000/svg" xmlns:xlink="http://www.w3.org/1999/xlink" x="0px" y="0px"
	 width="222px" height="67px" viewBox="0 0 222 67" enable-background="new 0 0 222 67" xml:space="preserve">
<rect fill-rule="evenodd" clip-rule="evenodd" width="222" height="67"/>
<g>
	<g>
		<path fill-rule="evenodd" clip-rule="evenodd" fill="#FFFFFF" d="M185.041,30.533c0.398,1.121,0.648-1.614,2.236-0.654
			c5.328,3.227,9.762,7.172,15.762,9.856c1.336-3.59-1.711-8.69,0.196-12.773c1.091-0.284,1.961-0.812,3.539-0.557
			c0.021,6.378,3.327,13.287-0.676,18.511c-8.268-0.475-11.898-4.686-16.8-7.873c-1.174,0.941-1.479,2.844-2.514,3.938
			c-1.355-0.184-2.021-0.922-1.996-2.215c-4.584,5.998-17.885,2.217-25.332,0.145c-1.387,0.551-0.78,3.314-2.477,3.525
			c-1.629,0.164-1.861-0.795-1.563-2.182c-1.538,0.088-1.413,2.016-2.809,2.262c-3.952,0.389-6.73-1.168-9.646,0.508
			c-2.02-1.08-0.812-4.057-1.221-6.279c-0.322-1.756-1.646-3.07-0.422-5.395c3.129-1.313,6.433-2.428,11.484-1.605
			c2.357,2.516-0.176,7.504-3.688,7.559c1.12,1.008,3.367,1.109,5.57,1.246c0.777-3.129-1.16-5.102,0.185-7.411
			c1.866-3.213,10.083-4.032,12.714-0.689c-0.039,2.195-0.761,3.632-1.712,4.822c0.951,1.422,2.107,0.316,3.835,1.115
			c1.445-2.227-0.086-5.202,1.451-6.904c4.545-0.785,10.171-0.372,14.52-1.376C185.652,29.123,185.579,30.087,185.041,30.533z
			 M178.694,33.354c-0.169,1.604-0.979,2.5-1.61,3.59c3.154,0.096,4.026-0.225,7.843,0.182c0.079-1.977,0.118-3.918-0.425-5.394
			C183.736,33.57,180.664,32.85,178.694,33.354z M158.602,33.482c-0.148,1.268,0.005,2.289,0.63,2.934
			c0.102-2.572,3.271-1.748,4.21-3.391C161.934,32.213,160.031,32.93,158.602,33.482z M145.386,34.955
			c1.112,0.039,1.581-0.633,2.271-1.062C146.42,33.717,145.295,33.66,145.386,34.955z"/>
		<path fill-rule="evenodd" clip-rule="evenodd" fill="#FFFFFF" d="M128.295,25.796c-1.102,4.162-6.168,12.829-8.059,17.569
			c-4.021-1.094-5.238-4.441-8.195-6.395c-1.822,1.115-1.488,4.619-3.117,5.951c-2.425-0.654-5.205-3.219-6.962-5.477
			c-1.376-1.771-6.252-9.737-3.021-11.659c3.423,1.319,5.417,9.473,8.765,10.856c1.888-1.492,1.967-4.987,4.818-5.411
			c3.169,1.01,3.766,4.1,6.525,5.444C121.331,34.24,123.915,24.427,128.295,25.796z"/>
		<path fill-rule="evenodd" clip-rule="evenodd" fill="#FFFFFF" d="M138.59,43.104c-2.283-0.324-2.81-2.064-3.627-3.572
			c-2.377,0.5-4.94,0.795-7.113,1.521c-1.87,0.318-1.156,3.496-3.346,3.461c-3.319-1.432,0.328-5.105,0.654-7.789
			c3.754-1.363,3.91-6.712,8.457-7.197c3.289,2.448,4.144,6.857,7.055,9.609C139.895,40.369,139.935,42.504,138.59,43.104z
			 M130.899,35.922c0.657-0.02,1.587,0.268,1.769-0.277c-0.572-0.049-0.336-0.75-0.799-0.887
			C131.717,35.336,131.096,35.396,130.899,35.922z"/>
		<path fill-rule="evenodd" clip-rule="evenodd" fill="#FFFFFF" d="M76.599,38c1.685,0.045,3.198,0.227,4.304,0.738
			c-0.45,1.293-0.822,2.672-1.61,3.59c-7.151,0.092-18.761,2.455-23.355-2.594c-0.048,1.441-0.332,2.615-1.142,3.215
			c-2.751,0.908-2.953-9.148-2.11-11.297c1.377-3.512,8.63-3.639,10.514-0.443c1.153,1.956-0.324,3.786-1.816,6.049
			c0.349,0.867,1.59,1.014,2.968,1.053c0.858-1.229,0.649-6.076,1.588-8.543c3.393-1.467,8.689-0.82,12.386-1.95
			c0.344,0.359,0.162,1.142,0.764,1.296c3.387,0.586,4.674,2.861,8.939,2.738c2.209-1.582,3.066-4.661,6.518-4.867
			c0.223,3.73-3.208,7.153-5.596,9.475c0.042,3.156,1.165,6.82-2.387,7.656c-1.62-1.498-1.986-4.004-1.586-7.131
			c-1.081-1.422-3.73-1.584-5.467-2.479c-0.344-0.104-0.397-0.443-0.833-0.475C79.938,35.986,77.625,37.16,76.599,38z
			 M73.539,32.816c-1.703,0.121-4.52,0.309-4.905,1.279c3.038-0.363,7.025,0.322,9.644-0.508
			C76.871,32.582,75.199,32.701,73.539,32.816z M55.814,36.014c1.608-0.307,2.797-1.078,3.675-2.197
			C57.459,32.965,55.4,33.031,55.814,36.014z"/>
		<path fill-rule="evenodd" clip-rule="evenodd" fill="#FFFFFF" d="M42.983,27.616c2.442-0.374,3.437,0.205,6.073,0.46
			c6.703,4.602-0.335,15.721-8.975,13.346c-1.895-0.52-4.313-2.586-3.422-6.033C37.451,32.318,41.459,30.319,42.983,27.616z
			 M48.508,34.635c0.266-1.838-2.284-3.735-4.967-3.263c-0.092,2.584-2.008,3.148-3.012,4.722
			C43.375,37.797,48.125,37.277,48.508,34.635z"/>
		<path fill-rule="evenodd" clip-rule="evenodd" fill="#FFFFFF" d="M31.506,23.445c1.042,7.863-9.502,7.257-12.544,12.299
			c5.093,3.565,12.784,1.801,19.351,3.518c-0.105,1.254-0.209,2.508-0.316,3.762c-6.147,1.363-18.727,2.883-23.383-1.77
			C14.118,31.063,24.227,26.719,31.506,23.445z"/>
	</g>
</g>
<g>
	<g>
		<path fill="#FFFFFF" d="M63.284,13.574c0.041,0.305,0.061,0.458,0.102,0.763c-0.505,0.067-0.758,0.101-1.263,0.169
			c0.217,1.595,0.326,2.392,0.543,3.987c-0.364,0.049-0.547,0.074-0.911,0.125c-0.221-1.595-0.332-2.391-0.553-3.986
			c-0.505,0.07-0.758,0.105-1.262,0.177c-0.043-0.304-0.065-0.457-0.108-0.761C61.212,13.852,61.903,13.757,63.284,13.574z"/>
		<path fill="#FFFFFF" d="M65.926,18.065c-0.242-1.9-0.362-2.85-0.603-4.75c0.37-0.047,0.554-0.07,0.924-0.116
			c0.095,0.758,0.142,1.137,0.236,1.895c0.741-0.092,1.111-0.137,1.853-0.225c-0.091-0.759-0.135-1.137-0.225-1.896
			c0.37-0.044,0.555-0.066,0.925-0.109c0.222,1.902,0.332,2.853,0.554,4.755c-0.365,0.042-0.547,0.065-0.913,0.108
			c-0.097-0.817-0.146-1.224-0.243-2.04c-0.739,0.088-1.11,0.131-1.849,0.224c0.101,0.816,0.152,1.223,0.253,2.039
			C66.472,17.996,66.29,18.019,65.926,18.065z"/>
		<path fill="#FFFFFF" d="M72.026,17.344c-0.209-1.904-0.313-2.855-0.521-4.759c1.282-0.141,1.925-0.208,3.208-0.337
			c0.03,0.306,0.044,0.459,0.075,0.766c-0.911,0.091-1.366,0.139-2.276,0.236c0.049,0.454,0.074,0.681,0.123,1.135
			c0.66-0.071,0.989-0.106,1.648-0.174c0.031,0.306,0.047,0.459,0.079,0.765c-0.658,0.067-0.987,0.102-1.645,0.173
			c0.057,0.533,0.086,0.798,0.143,1.332c0.931-0.1,1.398-0.149,2.33-0.242c0.031,0.306,0.045,0.459,0.076,0.765
			C73.969,17.133,73.321,17.202,72.026,17.344z"/>
		<path fill="#FFFFFF" d="M81.264,11.64c0.462-0.038,0.694-0.057,1.156-0.093c0.704,1.868,1.05,2.801,1.739,4.672
			c-0.363,0.028-0.544,0.043-0.907,0.071c-0.139-0.404-0.209-0.608-0.348-1.011c-0.606,0.048-0.909,0.074-1.516,0.124
			c-0.08,0.422-0.121,0.632-0.2,1.054c-0.364,0.03-0.545,0.046-0.908,0.077C80.665,14.576,80.863,13.598,81.264,11.64z
			 M81.524,14.377c0.448-0.037,0.671-0.184,1.12-0.219C82.362,13.346,82.221,13,81.936,12c-0.005,0-0.008,0-0.013,0
			C81.762,13,81.683,13.528,81.524,14.377z"/>
		<path fill="#FFFFFF" d="M86.094,16.079c-0.134-1.911-0.202-2.866-0.336-4.776c0.774-0.055,1.162-0.08,1.937-0.131
			c1.103-0.072,1.585,0.533,1.64,1.319c0.041,0.588-0.23,1.083-0.807,1.286c0.479,0.825,0.716,1.238,1.19,2.065
			c-0.406,0.024-0.61,0.037-1.016,0.063c-0.41-0.755-0.617-1.134-1.031-1.888c-0.317,0.02-0.476,0.031-0.793,0.053
			c0.053,0.778,0.079,1.167,0.132,1.944C86.644,16.04,86.46,16.053,86.094,16.079z M86.828,13.329
			c0.273-0.018,0.41-0.028,0.682-0.046c0.722-0.048,0.929-0.285,0.9-0.735c-0.028-0.45-0.318-0.658-0.828-0.625
			c-0.338,0.022-0.508,0.034-0.846,0.057C86.772,12.52,86.791,12.79,86.828,13.329z"/>
		<path fill="#FFFFFF" d="M94.554,10.783c0.015,0.308,0.021,0.461,0.035,0.769c-0.508,0.023-0.761,0.036-1.269,0.061
			c0.08,1.608,0.121,2.412,0.201,4.02c-0.367,0.018-0.55,0.028-0.916,0.047c-0.084-1.608-0.127-2.411-0.211-4.019
			c-0.508,0.026-0.761,0.04-1.269,0.068c-0.018-0.307-0.025-0.461-0.042-0.768C92.471,10.883,93.165,10.847,94.554,10.783z"/>
		<path fill="#FFFFFF" d="M100.927,10.545c0.463-0.014,0.694-0.02,1.158-0.032c0.601,1.903,0.898,2.856,1.484,4.76
			c-0.364,0.008-0.545,0.013-0.91,0.022c-0.116-0.412-0.174-0.617-0.291-1.028c-0.608,0.015-0.913,0.024-1.521,0.042
			c-0.102,0.417-0.154,0.626-0.255,1.043c-0.364,0.011-0.546,0.017-0.91,0.028C100.173,13.445,100.422,12.478,100.927,10.545z
			 M101.026,13.322c0.449-0.013,0.673-0.131,1.122-0.143c-0.238-0.826-0.357-1.179-0.597-2.179c-0.005,0-0.008,0-0.014,0
			C101.331,12,101.229,12.483,101.026,13.322z"/>
		<path fill="#FFFFFF" d="M105.527,15.237c-0.031-1.915-0.047-2.872-0.079-4.787c0.388-0.007,0.582-0.348,0.969-0.353
			c0.784,1.294,1.171,1.903,1.941,2.903c0.005,0,0.008,0,0.014,0c-0.011-1-0.017-1.62-0.028-2.925
			c0.35-0.003,0.525,0.165,0.875,0.163c0.012,1.915,0.019,2.957,0.03,4.872c-0.354,0.002-0.53-0.362-0.883-0.359
			c-0.796-1.356-1.198-1.75-2.009-3.75c-0.005,0-0.008,0-0.013,0c0.019,2,0.028,2.453,0.047,3.816
			C106.045,14.821,105.873,15.231,105.527,15.237z"/>
		<path fill="#FFFFFF" d="M111.64,10.401c0.644,0,0.966,0,1.609,0.003c1.286,0.006,2.175,0.727,2.156,2.412
			c-0.018,1.684-0.908,2.383-2.177,2.378c-0.636-0.003-0.953-0.004-1.59-0.005C111.641,13.274,111.639,12.316,111.64,10.401z
			 M112.559,14.421c0.244,0.001,0.367,0.001,0.612,0.002c1.052,0.005,1.306-0.761,1.312-1.616c0.007-0.855-0.235-1.627-1.297-1.633
			c-0.247-0.001-0.37-0.001-0.617-0.002C112.564,12.472,112.561,13.121,112.559,14.421z"/>
		<path fill="#FFFFFF" d="M120.496,10.512c0.347,0.008,0.52-0.377,0.866-0.368c0.21,1.298,0.313,1.856,0.519,2.856
			c0.005,0,0.01,0,0.015,0c0.312,0,0.471-1.534,0.788-2.817c0.382,0.012,0.57,0.286,0.952,0.298c0.214,1.3,0.321,2.519,0.529,3.519
			c0.005,0,0.007,0,0.012,0c0.31-1,0.467-1.996,0.781-3.277c0.348,0.013,0.52-0.017,0.867-0.003
			c-0.478,1.899-0.714,2.829-1.183,4.728c-0.372-0.014-0.558-0.012-0.93-0.024c-0.232-1.372-0.352-2.423-0.591-3.423
			c-0.005,0-0.008,0-0.013,0c-0.323,1-0.482,2.015-0.799,3.368c-0.372-0.011-0.559-0.025-0.93-0.036
			C121.032,13.407,120.854,12.436,120.496,10.512z"/>
		<path fill="#FFFFFF" d="M129.321,15.697c-1.309-0.065-1.976-0.989-1.907-2.552c0.068-1.563,0.822-2.428,2.148-2.362
			c1.327,0.066,1.991,1.001,1.905,2.564C131.381,14.908,130.629,15.762,129.321,15.697z M129.524,11.55
			c-0.76-0.038-1.128,0.524-1.186,1.636c-0.059,1.112,0.263,1.704,1.02,1.742c0.753,0.037,1.125-0.514,1.185-1.632
			C130.602,12.177,130.284,11.588,129.524,11.55z"/>
		<path fill="#FFFFFF" d="M133.391,15.856c0.116-1.912,0.175-2.868,0.291-4.78c0.775,0.047,1.162,0.072,1.937,0.123
			c1.104,0.073,1.502,0.735,1.454,1.523c-0.035,0.588-0.37,1.044-0.968,1.169c0.366,0.882,0.55,1.321,0.912,2.204
			c-0.407-0.029-0.61-0.043-1.017-0.071c-0.309-0.802-0.464-1.204-0.776-2.006c-0.317-0.021-0.476-0.031-0.794-0.051
			c-0.049,0.778-0.072,1.167-0.122,1.945C133.941,15.889,133.757,15.877,133.391,15.856z M134.477,13.225
			c0.273,0.017,0.409,0.026,0.681,0.044c0.724,0.047,0.959-0.162,0.988-0.612c0.031-0.45-0.228-0.693-0.738-0.727
			c-0.338-0.023-0.51-0.034-0.848-0.055C134.526,12.415,134.512,12.685,134.477,13.225z"/>
		<path fill="#FFFFFF" d="M139.148,16.251c0.148-1.909,0.218-2.864,0.365-4.774c0.371,0.029,0.557,0.043,0.929,0.072
			c-0.067,0.849-0.102,1.273-0.169,2.122c0.711-0.797,1.07-1.195,1.79-1.99c0.427,0.036,0.638,0.055,1.066,0.092
			c-0.613,0.668-0.918,1.002-1.525,1.673c0.537,1.245,0.804,1.868,1.331,3.115c-0.405-0.036-0.608-0.054-1.014-0.088
			c-0.398-0.947-0.6-1.42-1.003-2.365c-0.298,0.311-0.445,0.467-0.741,0.779c-0.046,0.573-0.068,0.861-0.113,1.435
			C139.698,16.294,139.515,16.279,139.148,16.251z"/>
		<path fill="#FFFFFF" d="M147.507,13.46c-0.104-0.383-0.367-0.665-0.802-0.708c-0.402-0.039-0.706,0.094-0.741,0.463
			c-0.077,0.819,2.425,0.891,2.267,2.435c-0.099,0.976-0.766,1.4-1.825,1.297c-0.782-0.076-1.477-0.579-1.686-1.297
			c0.315-0.104,0.472-0.157,0.787-0.26c0.178,0.47,0.436,0.793,0.974,0.845c0.458,0.045,0.826-0.09,0.872-0.552
			c0.094-0.937-2.402-0.991-2.267-2.456c0.079-0.852,0.848-1.268,1.688-1.187c0.778,0.075,1.385,0.523,1.603,1.246
			C148.028,13.356,147.854,13.391,147.507,13.46z"/>
		<path fill="#FFFFFF" d="M155.297,17.923c-1.302-0.159-1.899-1.128-1.719-2.682c0.181-1.554,0.996-2.363,2.316-2.201
			c1.319,0.161,1.915,1.142,1.717,2.694C157.413,17.286,156.599,18.083,155.297,17.923z M155.8,13.804
			c-0.756-0.092-1.164,0.44-1.302,1.545c-0.139,1.105,0.137,1.718,0.893,1.811c0.747,0.091,1.163-0.431,1.303-1.543
			C156.833,14.506,156.555,13.896,155.8,13.804z"/>
		<path fill="#FFFFFF" d="M159.355,18.375c0.253-1.898,0.378-2.845,0.632-4.744c1.232,0.164,1.846,0.25,3.076,0.425
			c-0.043,0.304-0.064,0.456-0.108,0.76c-0.859-0.122-1.289-0.182-2.148-0.299c-0.061,0.453-0.093,0.678-0.154,1.13
			c0.642,0.087,0.963,0.131,1.604,0.222c-0.042,0.305-0.064,0.458-0.107,0.762c-0.64-0.09-0.96-0.135-1.6-0.223
			c-0.114,0.836-0.171,1.253-0.285,2.089C159.9,18.449,159.719,18.423,159.355,18.375z"/>
	</g>
</g>
<g>
	<path fill="#FFFFFF" d="M77.325,54.911h0.906v5.511h-0.906V54.911z"/>
	<path fill="#FFFFFF" d="M87.111,56.478c-0.171-0.504-0.394-0.72-0.751-0.72c-0.364,0-0.565,0.223-0.565,0.587
		c0,0.81,2.288,0.868,2.288,2.547c0,0.921-0.631,1.53-1.709,1.53c-0.832,0-1.478-0.453-1.753-1.508l1.01-0.216
		c0.119,0.646,0.49,0.877,0.795,0.877c0.356,0,0.631-0.238,0.631-0.639c0-1.01-2.288-1.025-2.288-2.526
		c0-0.92,0.549-1.499,1.612-1.499c0.913,0,1.47,0.541,1.648,1.3L87.111,56.478z"/>
	<path fill="#FFFFFF" d="M90.895,60.348v-5.363h1.025v5.363H90.895z"/>
	<path fill="#FFFFFF" d="M94.819,60.348v-5.363h1.122l1.426,3.18h0.015v-3.18h0.936v5.363h-0.981l-1.567-3.462h-0.015v3.462H94.819z
		"/>
	<path fill="#FFFFFF" d="M102.094,58.758c0,0.595,0.26,0.758,0.669,0.758s0.668-0.163,0.668-0.758v-0.356h1.025v0.223
		c0,1.322-0.698,1.798-1.693,1.798s-1.693-0.476-1.693-1.798v-1.916c0-1.321,0.698-1.797,1.693-1.797s1.693,0.476,1.693,1.797v0.015
		h-1.025v-0.148c0-0.594-0.26-0.757-0.668-0.757s-0.669,0.163-0.669,0.757V58.758z"/>
	<path fill="#FFFFFF" d="M107.148,60.348v-5.363h2.808v0.907h-1.783v1.232h1.359v0.906h-1.359v1.411h1.857v0.906H107.148z"/>
	<path fill="#FFFFFF" d="M117.933,56.247h-0.826v-0.586c0.788-0.156,0.922-0.424,1.174-0.75h0.587v5.437h-0.935V56.247z"/>
	<path fill="#FFFFFF" d="M123.565,58.943c0.015,0.364,0.312,0.632,0.676,0.632c0.55,0,0.816-0.253,0.816-1.122v-0.497
		c-0.334,0.253-0.728,0.416-1.15,0.416c-0.937,0-1.419-0.728-1.419-1.59c0-1.1,0.535-1.871,1.753-1.871
		c1.159,0,1.798,0.713,1.798,1.857v1.798c0,1.144-0.639,1.857-1.798,1.857c-0.93,0-1.583-0.513-1.657-1.479H123.565z
		 M125.058,56.879c0-0.869-0.267-1.121-0.816-1.121c-0.513,0-0.773,0.371-0.773,0.987c0,0.595,0.319,0.869,0.773,0.869
		c0.312,0,0.563-0.208,0.816-0.438V56.879z"/>
	<path fill="#FFFFFF" d="M130.23,60.422c-1.018,0-1.797-0.535-1.797-1.597c0-0.603,0.207-1.07,0.779-1.293
		c-0.424-0.215-0.646-0.697-0.646-1.165c0-0.996,0.735-1.456,1.664-1.456c0.929,0,1.663,0.46,1.663,1.456
		c0,0.468-0.222,0.95-0.646,1.165c0.571,0.223,0.78,0.69,0.78,1.293C132.028,59.887,131.248,60.422,130.23,60.422z M130.23,57.971
		c-0.497,0-0.816,0.327-0.816,0.825c0,0.46,0.216,0.779,0.816,0.779c0.602,0,0.818-0.319,0.818-0.779
		C131.049,58.298,130.729,57.971,130.23,57.971z M130.23,55.758c-0.401,0-0.683,0.312-0.683,0.69s0.304,0.676,0.683,0.676
		c0.379,0,0.684-0.297,0.684-0.676S130.631,55.758,130.23,55.758z"/>
	<path fill="#FFFFFF" d="M136.896,56.389c-0.015-0.363-0.311-0.631-0.675-0.631c-0.55,0-0.817,0.252-0.817,1.121v0.498
		c0.334-0.253,0.727-0.417,1.15-0.417c0.937,0,1.419,0.729,1.419,1.59c0,1.1-0.535,1.872-1.752,1.872
		c-1.16,0-1.799-0.713-1.799-1.857v-1.798c0-1.144,0.639-1.857,1.799-1.857c0.928,0,1.582,0.513,1.656,1.478H136.896z
		 M135.404,58.453c0,0.869,0.268,1.122,0.817,1.122c0.512,0,0.771-0.371,0.771-0.987c0-0.596-0.319-0.869-0.771-0.869
		c-0.312,0-0.564,0.208-0.817,0.438V58.453z"/>
	<path fill="#FFFFFF" d="M144.441,54.911h0.906v5.511h-0.906V54.911z"/>
</g>
</svg>
