<?xml version="1.0" encoding="utf-8"?>
<!-- Generator: Adobe Illustrator 17.0.0, SVG Export Plug-In . SVG Version: 6.00 Build 0)  -->
<!DOCTYPE svg PUBLIC "-//W3C//DTD SVG 1.1//EN" "http://www.w3.org/Graphics/SVG/1.1/DTD/svg11.dtd">
<svg version="1.1" id="Layer_1" xmlns="http://www.w3.org/2000/svg" xmlns:xlink="http://www.w3.org/1999/xlink" x="0px" y="0px"
	 width="222px" height="67px" viewBox="0 0 222 67" enable-background="new 0 0 222 67" xml:space="preserve">
<rect fill-rule="evenodd" clip-rule="evenodd" width="222" height="67"/>
<g>
	<g>
		<path fill-rule="evenodd" clip-rule="evenodd" fill="#FFFFFF" d="M184.529,35.533c0.398,1.121,0.648-1.614,2.236-0.654
			c5.328,3.227,9.762,7.173,15.762,9.855c1.336-3.59-1.711-8.689,0.196-12.772c1.091-0.284,1.961-0.812,3.539-0.557
			c0.021,6.378,3.327,13.286-0.676,18.511c-8.268-0.475-11.898-4.686-16.8-7.873c-1.174,0.941-1.479,2.845-2.514,3.938
			c-1.355-0.184-2.021-0.922-1.996-2.215c-4.584,5.998-17.885,2.217-25.332,0.145c-1.387,0.552-0.78,3.314-2.477,3.525
			c-1.629,0.164-1.861-0.795-1.564-2.182c-1.538,0.088-1.413,2.016-2.809,2.262c-3.952,0.389-6.729-1.168-9.645,0.509
			c-2.02-1.08-0.812-4.058-1.221-6.28c-0.322-1.756-1.646-3.07-0.422-5.395c3.129-1.313,6.433-2.428,11.484-1.605
			c2.357,2.517-0.176,7.504-3.688,7.559c1.12,1.008,3.367,1.109,5.57,1.246c0.777-3.128-1.16-5.102,0.185-7.41
			c1.866-3.213,10.083-4.032,12.714-0.688c-0.039,2.195-0.761,3.633-1.712,4.821c0.951,1.422,2.107,0.316,3.835,1.115
			c1.445-2.226-0.086-5.201,1.451-6.903c4.545-0.785,10.171-0.372,14.52-1.376C185.141,34.123,185.067,35.087,184.529,35.533z
			 M178.183,38.353c-0.169,1.604-0.98,2.5-1.61,3.591c3.154,0.095,4.026-0.225,7.843,0.181c0.079-1.976,0.118-3.918-0.425-5.394
			C183.225,38.57,180.152,37.85,178.183,38.353z M158.091,38.483c-0.148,1.267,0.005,2.288,0.63,2.934
			c0.102-2.573,3.271-1.749,4.21-3.392C161.422,37.212,159.52,37.929,158.091,38.483z M144.874,39.956
			c1.112,0.039,1.581-0.634,2.271-1.063C145.908,38.717,144.783,38.661,144.874,39.956z"/>
		<path fill-rule="evenodd" clip-rule="evenodd" fill="#FFFFFF" d="M127.783,30.796c-1.102,4.162-6.168,12.828-8.059,17.568
			c-4.021-1.093-5.238-4.441-8.195-6.395c-1.822,1.115-1.488,4.619-3.117,5.951c-2.425-0.654-5.205-3.218-6.962-5.477
			c-1.376-1.771-6.252-9.736-3.021-11.658c3.423,1.319,5.417,9.473,8.765,10.856c1.888-1.492,1.967-4.986,4.818-5.41
			c3.169,1.011,3.766,4.1,6.524,5.444C120.819,39.24,123.403,29.427,127.783,30.796z"/>
		<path fill-rule="evenodd" clip-rule="evenodd" fill="#FFFFFF" d="M138.078,48.103c-2.283-0.323-2.809-2.064-3.627-3.572
			c-2.377,0.5-4.941,0.795-7.113,1.521c-1.87,0.318-1.156,3.496-3.346,3.461c-3.319-1.432,0.328-5.104,0.654-7.788
			c3.754-1.364,3.91-6.713,8.457-7.197c3.289,2.448,4.144,6.856,7.055,9.609C139.383,45.369,139.424,47.504,138.078,48.103z
			 M130.388,40.922c0.657-0.021,1.587,0.267,1.769-0.278c-0.572-0.048-0.336-0.749-0.799-0.887
			C131.205,40.335,130.584,40.396,130.388,40.922z"/>
		<path fill-rule="evenodd" clip-rule="evenodd" fill="#FFFFFF" d="M76.087,43c1.685,0.045,3.198,0.227,4.304,0.738
			c-0.45,1.293-0.822,2.672-1.61,3.591c-7.151,0.091-18.761,2.454-23.354-2.595c-0.048,1.441-0.332,2.615-1.142,3.215
			c-2.751,0.908-2.953-9.148-2.11-11.297c1.377-3.512,8.63-3.639,10.514-0.443c1.153,1.955-0.324,3.786-1.816,6.05
			c0.349,0.866,1.59,1.013,2.968,1.052c0.858-1.228,0.649-6.076,1.588-8.543c3.392-1.467,8.688-0.82,12.386-1.95
			c0.344,0.359,0.162,1.142,0.764,1.296c3.387,0.586,4.674,2.861,8.939,2.738c2.209-1.582,3.066-4.661,6.518-4.867
			c0.223,3.731-3.208,7.152-5.596,9.476c0.042,3.155,1.165,6.819-2.387,7.656c-1.62-1.499-1.986-4.005-1.586-7.132
			c-1.081-1.422-3.73-1.583-5.467-2.478c-0.344-0.103-0.397-0.443-0.833-0.475C79.427,40.986,77.113,42.16,76.087,43z
			 M73.027,37.817c-1.703,0.121-4.52,0.308-4.905,1.278c3.038-0.362,7.025,0.322,9.643-0.507
			C76.359,37.582,74.688,37.702,73.027,37.817z M55.303,41.013c1.608-0.306,2.797-1.077,3.675-2.197
			C56.947,37.964,54.889,38.031,55.303,41.013z"/>
		<path fill-rule="evenodd" clip-rule="evenodd" fill="#FFFFFF" d="M42.472,32.616c2.442-0.374,3.437,0.205,6.073,0.46
			c6.703,4.602-0.335,15.721-8.975,13.347c-1.895-0.521-4.313-2.587-3.422-6.034C36.939,37.318,40.947,35.319,42.472,32.616z
			 M47.996,39.634c0.266-1.838-2.284-3.734-4.967-3.263c-0.092,2.583-2.008,3.147-3.012,4.722
			C42.863,42.796,47.613,42.278,47.996,39.634z"/>
		<path fill-rule="evenodd" clip-rule="evenodd" fill="#FFFFFF" d="M30.994,28.445c1.042,7.863-9.502,7.257-12.544,12.299
			c5.093,3.565,12.784,1.801,19.351,3.518c-0.105,1.254-0.209,2.509-0.316,3.763c-6.147,1.363-18.727,2.882-23.383-1.771
			C13.606,36.063,23.716,31.719,30.994,28.445z"/>
	</g>
</g>
<g>
	<g>
		<path fill="#FFFFFF" d="M39.899,18.131c0.061,0.46,0.091,0.69,0.152,1.149c-0.761,0.101-1.141,0.152-1.902,0.256
			c0.327,2.405,0.491,3.607,0.819,6.011c-0.549,0.075-0.824,0.113-1.374,0.189c-0.333-2.404-0.5-3.606-0.834-6.009
			c-0.761,0.106-1.141,0.159-1.902,0.267c-0.065-0.459-0.098-0.689-0.163-1.148C36.776,18.551,37.816,18.408,39.899,18.131z"/>
		<path fill="#FFFFFF" d="M43.881,24.902c-0.363-2.864-0.545-4.295-0.909-7.159c0.557-0.071,0.836-0.106,1.393-0.175
			c0.142,1.143,0.213,1.714,0.355,2.857c1.117-0.139,1.675-0.207,2.793-0.34c-0.136-1.143-0.204-1.715-0.341-2.858
			c0.558-0.066,0.837-0.099,1.394-0.164c0.334,2.867,0.501,4.3,0.835,7.167c-0.55,0.064-0.826,0.097-1.376,0.162
			c-0.147-1.231-0.22-1.846-0.366-3.076c-1.115,0.133-1.672,0.201-2.786,0.339c0.153,1.23,0.229,1.845,0.382,3.075
			C44.706,24.797,44.431,24.832,43.881,24.902z"/>
		<path fill="#FFFFFF" d="M53.078,23.814c-0.315-2.869-0.472-4.303-0.787-7.173c1.933-0.212,2.9-0.314,4.834-0.509
			c0.047,0.461,0.07,0.692,0.116,1.153c-1.373,0.138-2.059,0.21-3.431,0.357c0.073,0.684,0.11,1.026,0.183,1.709
			c0.994-0.106,1.491-0.159,2.485-0.26c0.047,0.461,0.071,0.692,0.118,1.153c-0.992,0.102-1.488,0.154-2.48,0.26
			c0.086,0.803,0.129,1.204,0.215,2.008c1.404-0.15,2.106-0.223,3.511-0.365c0.046,0.461,0.07,0.692,0.116,1.153
			C56.006,23.497,55.03,23.599,53.078,23.814z"/>
		<path fill="#FFFFFF" d="M67.002,15.216c0.697-0.058,1.045-0.086,1.742-0.141c1.06,2.816,1.584,4.224,2.622,7.044
			c-0.548,0.041-0.822,0.063-1.37,0.105c-0.209-0.609-0.313-0.914-0.523-1.523c-0.915,0.072-1.372,0.109-2.286,0.185
			c-0.121,0.636-0.181,0.954-0.301,1.59c-0.548,0.046-0.822,0.069-1.369,0.117C66.1,19.641,66.397,18.166,67.002,15.216z
			 M67.395,19.726c0.675-0.056,1.012-0.083,1.688-0.137c-0.425-1.225-0.639-1.838-1.067-3.063c-0.008,0.001-0.012,0.001-0.02,0.002
			C67.753,17.807,67.633,18.447,67.395,19.726z"/>
		<path fill="#FFFFFF" d="M74.282,21.906c-0.202-2.879-0.303-4.318-0.506-7.198c1.168-0.082,1.752-0.122,2.92-0.197
			c1.662-0.108,2.388,0.803,2.472,1.988c0.063,0.886-0.346,1.632-1.216,1.938c0.721,1.244,1.08,1.867,1.794,3.114
			c-0.612,0.037-0.919,0.056-1.531,0.094c-0.618-1.139-0.929-1.708-1.553-2.845c-0.479,0.031-0.718,0.047-1.197,0.08
			c0.079,1.173,0.119,1.759,0.199,2.932C75.11,21.848,74.834,21.867,74.282,21.906z M75.388,17.762
			c0.411-0.028,0.617-0.042,1.028-0.069c1.089-0.072,1.4-0.431,1.357-1.109c-0.043-0.678-0.479-0.992-1.248-0.941
			c-0.51,0.033-0.765,0.05-1.275,0.085C75.305,16.542,75.333,16.949,75.388,17.762z"/>
		<path fill="#FFFFFF" d="M87.035,13.926c0.021,0.463,0.032,0.695,0.054,1.158c-0.765,0.035-1.148,0.054-1.913,0.092
			c0.121,2.424,0.181,3.635,0.301,6.059c-0.553,0.027-0.829,0.042-1.382,0.07c-0.126-2.424-0.19-3.635-0.316-6.058
			c-0.765,0.04-1.148,0.061-1.913,0.103c-0.026-0.463-0.039-0.694-0.065-1.158C83.894,14.076,84.941,14.022,87.035,13.926z"/>
		<path fill="#FFFFFF" d="M96.641,13.566c0.698-0.02,1.047-0.03,1.745-0.047c0.906,2.869,1.354,4.303,2.238,7.175
			c-0.549,0.012-0.823,0.018-1.372,0.032c-0.175-0.62-0.263-0.929-0.44-1.549c-0.916,0.023-1.374,0.035-2.29,0.062
			c-0.155,0.628-0.232,0.943-0.385,1.571c-0.549,0.016-0.823,0.025-1.372,0.043C95.504,17.937,95.88,16.48,96.641,13.566z
			 M96.791,18.126c0.676-0.019,1.014-0.011,1.691-0.028C98.124,16.851,97.944,16,97.582,15c-0.008,0-0.012,0-0.02,0
			C97.251,16,97.097,16.861,96.791,18.126z"/>
		<path fill="#FFFFFF" d="M103.574,20.637c-0.047-2.886-0.071-4.328-0.118-7.215c0.585-0.01,0.877-0.157,1.462-0.165
			c1.18,1.951,1.765,2.742,2.925,4.742c0.008,0,0.012,0,0.02,0c-0.017-2-0.025-2.807-0.042-4.774
			c0.528-0.004,0.792,0.065,1.319,0.062c0.018,2.887,0.026,4.365,0.044,7.251c-0.533,0.003-0.799-0.217-1.332-0.213
			c-1.2-2.045-1.805-2.326-3.027-5.326c-0.008,0-0.012,0-0.02,0c0.029,3,0.043,3.322,0.072,5.377
			C104.356,20.384,104.095,20.629,103.574,20.637z"/>
		<path fill="#FFFFFF" d="M112.791,13.348c0.971,0.001,1.456,0.002,2.426,0.007c1.939,0.01,3.277,1.095,3.249,3.634
			c-0.028,2.538-1.372,3.591-3.285,3.582c-0.958-0.005-1.437-0.006-2.395-0.007C112.789,17.678,112.79,16.235,112.791,13.348z
			 M114.173,19.407c0.369,0.001,0.554,0.002,0.924,0.004c1.586,0.008,1.968-1.147,1.979-2.436c0.011-1.289-0.355-2.454-1.955-2.462
			c-0.373-0.002-0.559-0.002-0.932-0.004C114.182,16.469,114.179,17.449,114.173,19.407z"/>
		<path fill="#FFFFFF" d="M126.137,13.517c0.524,0.013,0.786-0.201,1.31-0.187c0.316,1.957,0.473,2.67,0.783,4.67
			c0.008,0,0.012,0,0.02,0c0.471-1,0.708-2.68,1.186-4.613c0.576,0.018,0.864,0.362,1.441,0.381
			c0.321,1.959,0.479,3.232,0.794,5.232c0.008,0,0.012,0,0.02,0c0.466-2,0.701-3.121,1.175-5.052
			c0.524,0.019,0.786-0.083,1.309-0.062c-0.723,2.861-1.08,4.235-1.786,7.097c-0.561-0.02-0.841,0.087-1.402,0.068
			C130.636,18.983,130.459,18,130.1,16c-0.008,0-0.012,0-0.02,0c-0.486,2-0.728,2.915-1.206,4.956
			c-0.561-0.017-0.841-0.098-1.402-0.113C126.946,17.941,126.679,16.418,126.137,13.517z"/>
		<path fill="#FFFFFF" d="M139.439,21.33c-1.972-0.098-2.974-1.49-2.871-3.846c0.104-2.356,1.239-3.66,3.237-3.561
			c1.999,0.099,3,1.508,2.87,3.863C142.547,20.142,141.411,21.428,139.439,21.33z M139.749,15.082
			c-1.144-0.057-1.701,0.789-1.789,2.466c-0.088,1.677,0.393,2.568,1.537,2.625c1.134,0.056,1.7-0.774,1.789-2.46
			S140.893,15.138,139.749,15.082z"/>
		<path fill="#FFFFFF" d="M145.576,21.569c0.175-2.881,0.263-4.321,0.438-7.202c1.168,0.071,1.752,0.108,2.92,0.185
			c1.662,0.11,2.263,1.107,2.191,2.293c-0.054,0.887-0.557,1.573-1.459,1.762c0.553,1.328,0.827,1.992,1.372,3.321
			c-0.612-0.043-0.918-0.065-1.53-0.106c-0.465-1.21-0.698-1.814-1.169-3.023c-0.479-0.031-0.718-0.047-1.197-0.077
			c-0.074,1.173-0.111,1.759-0.186,2.933C146.404,21.619,146.128,21.602,145.576,21.569z M147.213,17.605
			c0.411,0.026,0.617,0.039,1.028,0.066c1.089,0.071,1.444-0.244,1.49-0.923c0.046-0.678-0.346-1.046-1.115-1.096
			c-0.51-0.033-0.765-0.05-1.275-0.082C147.29,16.384,147.265,16.791,147.213,17.605z"/>
		<path fill="#FFFFFF" d="M154.255,22.166c0.221-2.878,0.332-4.316,0.553-7.195c0.559,0.043,0.839,0.065,1.398,0.109
			c-0.102,1.279-0.152,1.919-0.254,3.198c1.073-1.202,1.612-1.802,2.695-2.999c0.644,0.054,0.966,0.082,1.611,0.137
			c-0.924,1.007-1.384,1.512-2.3,2.523c0.81,1.876,1.211,2.815,2.006,4.694c-0.612-0.053-0.918-0.08-1.529-0.132
			c-0.6-1.427-0.902-2.14-1.511-3.565c-0.447,0.469-0.671,0.704-1.116,1.174c-0.069,0.865-0.103,1.297-0.172,2.162
			C155.082,22.23,154.807,22.208,154.255,22.166z"/>
		<path fill="#FFFFFF" d="M166.854,17.958c-0.156-0.578-0.554-1-1.21-1.063c-0.606-0.059-1.063,0.139-1.116,0.696
			c-0.117,1.234,3.652,1.344,3.415,3.67c-0.15,1.471-1.153,2.111-2.751,1.956c-1.178-0.114-2.225-0.874-2.539-1.957
			c0.475-0.157,0.713-0.235,1.189-0.391c0.267,0.708,0.655,1.196,1.465,1.275c0.69,0.067,1.246-0.139,1.315-0.835
			c0.14-1.412-3.624-1.492-3.419-3.701c0.119-1.284,1.279-1.91,2.545-1.787c1.174,0.114,2.088,0.789,2.416,1.877
			C167.639,17.801,167.377,17.854,166.854,17.958z"/>
		<path fill="#FFFFFF" d="M178.597,24.688c-1.963-0.24-2.864-1.701-2.591-4.044c0.273-2.343,1.501-3.561,3.491-3.318
			s2.889,1.721,2.589,4.061C181.786,23.727,180.56,24.928,178.597,24.688z M179.356,18.477c-1.139-0.139-1.756,0.664-1.965,2.33
			c-0.209,1.666,0.208,2.59,1.346,2.729c1.128,0.138,1.754-0.649,1.964-2.325C180.911,19.536,180.495,18.617,179.356,18.477z"/>
		<path fill="#FFFFFF" d="M184.71,25.369c0.382-2.861,0.574-4.291,0.956-7.152c1.856,0.248,2.784,0.376,4.638,0.64
			c-0.065,0.459-0.098,0.689-0.163,1.148c-1.295-0.184-1.943-0.275-3.24-0.451c-0.093,0.681-0.139,1.022-0.232,1.704
			c0.967,0.132,1.451,0.199,2.417,0.335c-0.065,0.459-0.097,0.689-0.162,1.148c-0.965-0.136-1.447-0.203-2.412-0.334
			c-0.172,1.26-0.258,1.889-0.429,3.149C185.534,25.48,185.259,25.443,184.71,25.369z"/>
	</g>
</g>
<text transform="matrix(1 0 0 1 69.5 62.5527)" fill="#FFFFFF" font-family="'TradeGothicLTStd-Light'" font-size="8" letter-spacing="1"> | SINCE 1986 |</text>
</svg>
